<?xml version="1.0" encoding="UTF-8"?>
<svg version="1.1" xmlns="http://www.w3.org/2000/svg" width="64" height="64">
<path d="M0 0 C3 1 3 1 4 3 C4.07092842 5.2072923 4.08415025 7.41667452 4.0625 9.625 C4.05347656 10.81351563 4.04445313 12.00203125 4.03515625 13.2265625 C4.02355469 14.14179688 4.01195313 15.05703125 4 16 C4.85464844 15.98839844 5.70929687 15.97679687 6.58984375 15.96484375 C7.69457031 15.95582031 8.79929688 15.94679688 9.9375 15.9375 C11.03964844 15.92589844 12.14179687 15.91429687 13.27734375 15.90234375 C16 16 16 16 17 17 C17.07244053 19.01964199 17.08377188 21.04167124 17.0625 23.0625 C17.05347656 24.16722656 17.04445312 25.27195312 17.03515625 26.41015625 C17.02355469 27.26480469 17.01195312 28.11945312 17 29 C17.63808594 28.98839844 18.27617188 28.97679688 18.93359375 28.96484375 C19.75988281 28.95582031 20.58617187 28.94679688 21.4375 28.9375 C22.26121094 28.92589844 23.08492187 28.91429688 23.93359375 28.90234375 C26 29 26 29 27 30 C27.24966567 33.1382345 27.18521791 36.29049613 27.1875 39.4375 C27.19974609 40.32244141 27.21199219 41.20738281 27.22460938 42.11914062 C27.22654297 42.96541016 27.22847656 43.81167969 27.23046875 44.68359375 C27.23457764 45.46275146 27.23868652 46.24190918 27.24291992 47.04467773 C27 49 27 49 25 51 C22.95068359 51.25396729 22.95068359 51.25396729 20.3984375 51.25878906 C19.44404785 51.26509338 18.4896582 51.27139771 17.50634766 51.27789307 C16.47300293 51.2738446 15.4396582 51.26979614 14.375 51.265625 C13.31716309 51.26753845 12.25932617 51.2694519 11.16943359 51.27142334 C8.93001061 51.27278602 6.69057974 51.26908382 4.45117188 51.26074219 C1.01414323 51.25004402 -2.4223627 51.26063488 -5.859375 51.2734375 C-8.03125116 51.27211592 -10.20312699 51.26955356 -12.375 51.265625 C-13.40834473 51.26967346 -14.44168945 51.27372192 -15.50634766 51.27789307 C-16.4607373 51.27158875 -17.41512695 51.26528442 -18.3984375 51.25878906 C-19.24067871 51.25719788 -20.08291992 51.25560669 -20.95068359 51.25396729 C-23 51 -23 51 -25 49 C-25.24291992 47.04467773 -25.24291992 47.04467773 -25.23046875 44.68359375 C-25.22853516 43.83732422 -25.22660156 42.99105469 -25.22460938 42.11914062 C-25.21236328 41.23419922 -25.20011719 40.34925781 -25.1875 39.4375 C-25.18685547 38.54869141 -25.18621094 37.65988281 -25.18554688 36.74414062 C-25.14021097 30.14021097 -25.14021097 30.14021097 -24 29 C-22.48071962 28.92820036 -20.95832518 28.91607993 -19.4375 28.9375 C-18.61121094 28.94652344 -17.78492188 28.95554687 -16.93359375 28.96484375 C-15.97646484 28.98224609 -15.97646484 28.98224609 -15 29 C-15.01160156 28.14535156 -15.02320313 27.29070313 -15.03515625 26.41015625 C-15.04417969 25.30542969 -15.05320312 24.20070313 -15.0625 23.0625 C-15.07410156 21.96035156 -15.08570313 20.85820312 -15.09765625 19.72265625 C-15 17 -15 17 -14 16 C-11.98035801 15.92755947 -9.95832876 15.91622812 -7.9375 15.9375 C-6.83277344 15.94652344 -5.72804688 15.95554687 -4.58984375 15.96484375 C-3.73519531 15.97644531 -2.88054688 15.98804688 -2 16 C-2.02320312 15.09636719 -2.04640625 14.19273438 -2.0703125 13.26171875 C-2.09738281 11.49248047 -2.09738281 11.49248047 -2.125 9.6875 C-2.14820312 8.51574219 -2.17140625 7.34398437 -2.1953125 6.13671875 C-2 3 -2 3 0 0 Z " fill="#FEA202" transform="translate(31,2)"/>
<path d="M0 0 C1.485 0.495 1.485 0.495 3 1 C3.495 5.95 3.495 5.95 4 11 C5.32 10.67 6.64 10.34 8 10 C8.33 7.69 8.66 5.38 9 3 C10.32 3 11.64 3 13 3 C13.66 4.65 14.32 6.3 15 8 C16.98 7.67 18.96 7.34 21 7 C21.05399736 8.45792884 21.09279177 9.91642712 21.125 11.375 C21.14820313 12.18710937 21.17140625 12.99921875 21.1953125 13.8359375 C21 16 21 16 19 18 C16.95068359 18.25396729 16.95068359 18.25396729 14.3984375 18.25878906 C13.44404785 18.26509338 12.4896582 18.27139771 11.50634766 18.27789307 C10.47300293 18.2738446 9.4396582 18.26979614 8.375 18.265625 C7.31716309 18.26753845 6.25932617 18.2694519 5.16943359 18.27142334 C2.93001061 18.27278602 0.69057974 18.26908382 -1.54882812 18.26074219 C-4.98585677 18.25004402 -8.4223627 18.26063488 -11.859375 18.2734375 C-14.03125116 18.27211592 -16.20312699 18.26955356 -18.375 18.265625 C-19.40834473 18.26967346 -20.44168945 18.27372192 -21.50634766 18.27789307 C-22.4607373 18.27158875 -23.41512695 18.26528442 -24.3984375 18.25878906 C-25.24067871 18.25719788 -26.08291992 18.25560669 -26.95068359 18.25396729 C-29 18 -29 18 -31 16 C-31.125 12.875 -31.125 12.875 -31 10 C-28.03 10.495 -28.03 10.495 -25 11 C-24.01 8.36 -23.02 5.72 -22 3 C-21.01 3.33 -20.02 3.66 -19 4 C-18.3125 6.0625 -18.3125 6.0625 -18 8 C-16.03243548 7.96877057 -16.03243548 7.96877057 -14 7 C-12.6954344 4.00384054 -12.6954344 4.00384054 -12 1 C-11.01 1.33 -10.02 1.66 -9 2 C-7.8125 4.5625 -7.8125 4.5625 -7 7 C-5.35 6.67 -3.7 6.34 -2 6 C-1.34 4.02 -0.68 2.04 0 0 Z " fill="#FEA400" transform="translate(37,35)"/>
<path d="M0 0 C4.96622349 -0.02465098 9.93241166 -0.04283649 14.89868164 -0.05493164 C16.58944316 -0.0599719 18.28020029 -0.06680405 19.97094727 -0.07543945 C22.39600707 -0.08751857 24.82100944 -0.09323123 27.24609375 -0.09765625 C28.38672523 -0.10539818 28.38672523 -0.10539818 29.55039978 -0.11329651 C31.3673257 -0.11349238 33.18413127 -0.06197277 35 0 C36.66561399 1.66561399 36.17115945 3.65962705 36.1875 5.9375 C36.20167969 6.83339844 36.21585938 7.72929688 36.23046875 8.65234375 C36 11 36 11 34 13 C31.5 12.9375 31.5 12.9375 29 12 C27.6875 9.4375 27.6875 9.4375 27 7 C26.34 7 25.68 7 25 7 C24.67 9.31 24.34 11.62 24 14 C22.35 14.33 20.7 14.66 19 15 C18.34 11.7 17.68 8.4 17 5 C16.34 5 15.68 5 15 5 C14.34 6.98 13.68 8.96 13 11 C10.625 11.625 10.625 11.625 8 12 C5.8614515 9.8614515 5.57344937 8.86724686 5 6 C4.34 6 3.68 6 3 6 C2.34 7.98 1.68 9.96 1 12 C-0.32 12 -1.64 12 -3 12 C-3.66 10.68 -4.32 9.36 -5 8 C-5.66 8 -6.32 8 -7 8 C-7.66 10.31 -8.32 12.62 -9 15 C-10.65 15.33 -12.3 15.66 -14 16 C-14.66 14.68 -15.32 13.36 -16 12 C-15.38125 11.95875 -14.7625 11.9175 -14.125 11.875 C-13.42375 11.58625 -12.7225 11.2975 -12 11 C-10.6954344 8.00384054 -10.6954344 8.00384054 -10 5 C-5.545 4.505 -5.545 4.505 -1 4 C-0.67 2.68 -0.34 1.36 0 0 Z " fill="#FC3E4D" transform="translate(22,31)"/>
<path d="M0 0 C3 1 3 1 4 3 C4.07092842 5.2072923 4.08415025 7.41667452 4.0625 9.625 C4.05347656 10.81351563 4.04445313 12.00203125 4.03515625 13.2265625 C4.02355469 14.14179688 4.01195313 15.05703125 4 16 C4.85464844 15.98839844 5.70929687 15.97679687 6.58984375 15.96484375 C7.69457031 15.95582031 8.79929687 15.94679688 9.9375 15.9375 C11.03964844 15.92589844 12.14179687 15.91429687 13.27734375 15.90234375 C16 16 16 16 17 17 C17.1875 19.9375 17.1875 19.9375 17 23 C16.34 23.66 15.68 24.32 15 25 C13 24.9375 13 24.9375 11 24 C9.75 21.4375 9.75 21.4375 9 19 C7.68 19 6.36 19 5 19 C4.7525 19.969375 4.505 20.93875 4.25 21.9375 C3.8375 22.948125 3.425 23.95875 3 25 C0.875 25.875 0.875 25.875 -1 26 C-2.32 24.02 -3.64 22.04 -5 20 C-6.95894361 20.11306697 -6.95894361 20.11306697 -9 21 C-10.29660434 23.49034386 -10.29660434 23.49034386 -11 26 C-12.32 25.67 -13.64 25.34 -15 25 C-15.09765625 18.84765625 -15.09765625 18.84765625 -15 17 C-14 16 -14 16 -11.27734375 15.90234375 C-9.62412109 15.91974609 -9.62412109 15.91974609 -7.9375 15.9375 C-6.28041016 15.95103516 -6.28041016 15.95103516 -4.58984375 15.96484375 C-3.73519531 15.97644531 -2.88054688 15.98804688 -2 16 C-2.02320313 15.09636719 -2.04640625 14.19273438 -2.0703125 13.26171875 C-2.09738281 11.49248047 -2.09738281 11.49248047 -2.125 9.6875 C-2.14820313 8.51574219 -2.17140625 7.34398437 -2.1953125 6.13671875 C-2 3 -2 3 0 0 Z " fill="#FD3F4C" transform="translate(31,2)"/>
<path d="M0 0 C2.0826461 -0.00218638 4.16476195 -0.02036316 6.24731445 -0.03930664 C8.22634766 -0.04220703 8.22634766 -0.04220703 10.24536133 -0.04516602 C11.4505542 -0.0492749 12.65574707 -0.05338379 13.89746094 -0.05761719 C17.08059047 0.17971619 19.29266683 0.82096222 22.15551758 2.18530273 C21.82551758 3.17530273 21.49551758 4.16530273 21.15551758 5.18530273 C16.08195901 7.28108374 9.69151936 6.37123914 4.31103516 6.37060547 C2.22838906 6.37279185 0.14627321 6.39096863 -1.9362793 6.40991211 C-3.9153125 6.4128125 -3.9153125 6.4128125 -5.93432617 6.41577148 C-7.13951904 6.41988037 -8.34471191 6.42398926 -9.58642578 6.42822266 C-12.76955531 6.19088928 -14.98163168 5.54964324 -17.84448242 4.18530273 C-17.51448242 3.19530273 -17.18448242 2.20530273 -16.84448242 1.18530273 C-11.77092385 -0.91047828 -5.3804842 -0.00063367 0 0 Z " fill="#000000" transform="translate(29.844482421875,57.814697265625)"/>
<path d="M0 0 C0.05399736 1.45792884 0.09279177 2.91642712 0.125 4.375 C0.14820312 5.18710937 0.17140625 5.99921875 0.1953125 6.8359375 C0 9 0 9 -2 11 C-4.9093558 11.14517744 -7.719946 11.18630796 -10.625 11.125 C-11.42679688 11.11597656 -12.22859375 11.10695313 -13.0546875 11.09765625 C-15.03658523 11.07406223 -17.01832981 11.03819065 -19 11 C-18.625 9.0625 -18.625 9.0625 -18 7 C-15.35541621 5.67770811 -13.32238699 5.90322806 -10.375 5.9375 C-8.87066406 5.95103516 -8.87066406 5.95103516 -7.3359375 5.96484375 C-6.56507812 5.97644531 -5.79421875 5.98804688 -5 6 C-5 4.68 -5 3.36 -5 2 C-1.125 0 -1.125 0 0 0 Z " fill="#D98C00" transform="translate(58,42)"/>
<path d="M0 0 C1.39456452 0.00667256 2.78911118 0.01863093 4.18359375 0.03515625 C4.89451172 0.03966797 5.60542969 0.04417969 6.33789062 0.04882812 C8.09899388 0.06064761 9.86005411 0.07858362 11.62109375 0.09765625 C11.29109375 1.41765625 10.96109375 2.73765625 10.62109375 4.09765625 C9.99460937 4.18402344 9.368125 4.27039062 8.72265625 4.359375 C6.25421604 4.78375983 3.97603177 5.23894957 1.62109375 6.09765625 C0.2464275 8.57401637 0.2464275 8.57401637 -0.37890625 11.09765625 C-2.421875 11.75 -2.421875 11.75 -4.37890625 12.09765625 C-4.40577904 10.28523573 -4.4252434 8.47270392 -4.44140625 6.66015625 C-4.45300781 5.65082031 -4.46460938 4.64148437 -4.4765625 3.6015625 C-4.32617643 -0.2543364 -3.97350921 0.11484131 0 0 Z " fill="#FD757F" transform="translate(10.37890625,30.90234375)"/>
<path d="M0 0 C3 1 3 1 4 3 C4.039992 4.99960012 4.04346799 7.00047242 4 9 C2.02 9 0.04 9 -2 9 C-2.25 3.375 -2.25 3.375 0 0 Z " fill="#FFCE29" transform="translate(31,2)"/>
<path d="M0 0 C1.98 0 3.96 0 6 0 C6 2.31 6 4.62 6 7 C4.02 7 2.04 7 0 7 C0 4.69 0 2.38 0 0 Z " fill="#9B33C1" transform="translate(29,11)"/>
<path d="M0 0 C0.78375 0.04125 1.5675 0.0825 2.375 0.125 C2.375 1.115 2.375 2.105 2.375 3.125 C1.385 3.455 0.395 3.785 -0.625 4.125 C-0.955 5.115 -1.285 6.105 -1.625 7.125 C-2.615 7.125 -3.605 7.125 -4.625 7.125 C-4.75 4.75 -4.75 4.75 -4.625 2.125 C-2.625 0.125 -2.625 0.125 0 0 Z " fill="#FEEBED" transform="translate(12.625,32.875)"/>
<path d="M0 0 C-0.33 1.32 -0.66 2.64 -1 4 C-2.32 4.33 -3.64 4.66 -5 5 C-4.625 3.0625 -4.625 3.0625 -4 1 C-2 0 -2 0 0 0 Z " fill="#D93840" transform="translate(58,39)"/>
</svg>
